<svg enable-background="new 0 0 339.6 175.8" viewBox="0 0 339.6 175.8" xmlns="http://www.w3.org/2000/svg" xmlns:xlink="http://www.w3.org/1999/xlink"><linearGradient id="a"><stop offset="0" stop-color="#513001"/><stop offset=".2958" stop-color="#fffcdf"/><stop offset=".4159" stop-color="#dac091"/><stop offset=".4589" stop-color="#d8be8f"/><stop offset=".4801" stop-color="#d2b787"/><stop offset=".4965" stop-color="#c8ab79"/><stop offset=".5104" stop-color="#bb9a67"/><stop offset=".5228" stop-color="#a98551"/><stop offset=".5341" stop-color="#926d39"/><stop offset=".5446" stop-color="#785320"/><stop offset=".5541" stop-color="#5a3807"/><stop offset=".5566" stop-color="#513001"/><stop offset=".7644" stop-color="#ab9969"/><stop offset=".8971" stop-color="#dac091"/></linearGradient><linearGradient id="b" gradientTransform="matrix(1 0 0 -1 0 207.9556)" gradientUnits="userSpaceOnUse" x1="44.1695" x2="298.3515" xlink:href="#a" y1="230.8173" y2="96.0167"/><linearGradient id="c" gradientTransform="matrix(1 0 0 -1 0 207.9556)" gradientUnits="userSpaceOnUse" x1="39.5129" x2="293.6953" xlink:href="#a" y1="222.0368" y2="87.2359"/><linearGradient id="d" gradientTransform="matrix(1 0 0 -1 0 207.9556)" gradientUnits="userSpaceOnUse" x1="42.6073" x2="296.812" xlink:href="#a" y1="227.8884" y2="93.0758"/><linearGradient id="e" gradientTransform="matrix(1 0 0 -1 0 207.9556)" gradientUnits="userSpaceOnUse" x1="65.6473" x2="319.7984" xlink:href="#a" y1="271.2601" y2="136.4758"/><linearGradient id="f" gradientTransform="matrix(1 0 0 -1 0 207.9556)" gradientUnits="userSpaceOnUse" x1="62.393" x2="316.5885" xlink:href="#a" y1="265.1891" y2="130.3813"/><linearGradient id="g" gradientTransform="matrix(1 0 0 -1 0 207.9556)" gradientUnits="userSpaceOnUse" x1="60.5363" x2="314.7593" xlink:href="#a" y1="261.728" y2="126.9056"/><linearGradient id="h" gradientTransform="matrix(1 0 0 -1 0 207.9556)" gradientUnits="userSpaceOnUse" x1="-21.2252" x2="232.9652" xlink:href="#a" y1="107.5155" y2="-27.2896"/><linearGradient id="i" gradientTransform="matrix(1 0 0 -1 0 207.9556)" gradientUnits="userSpaceOnUse" x1="-6.1766" x2="248.0148" xlink:href="#a" y1="135.8897" y2="1.0841"/><linearGradient id="j" gradientTransform="matrix(1 0 0 -1 0 207.9556)" gradientUnits="userSpaceOnUse" x1="9.8074" x2="264.0023" xlink:href="#a" y1="166.0323" y2="31.2249"/><linearGradient id="k" gradientTransform="matrix(1 0 0 -1 0 207.9556)" gradientUnits="userSpaceOnUse" x1="24.5935" x2="278.7878" xlink:href="#a" y1="193.9116" y2="59.1045"/><linearGradient id="l" gradientTransform="matrix(1 0 0 -1 0 207.9556)" gradientUnits="userSpaceOnUse" x1="37.2218" x2="291.4099" xlink:href="#a" y1="217.7085" y2="82.9046"/><linearGradient id="m" gradientTransform="matrix(1 0 0 -1 0 207.9556)" gradientUnits="userSpaceOnUse" x1="48.9484" x2="303.1411" xlink:href="#a" y1="239.8297" y2="105.0234"/><linearGradient id="n" gradientTransform="matrix(1 0 0 -1 0 207.9556)" gradientUnits="userSpaceOnUse" x1="-27.4817" x2="226.7115" xlink:href="#a" y1="95.7184" y2="-39.0882"/><linearGradient id="o" gradientTransform="matrix(1 0 0 -1 0 207.9556)" gradientUnits="userSpaceOnUse" x1="18.3486" x2="272.5439" xlink:href="#a" y1="182.1395" y2="47.3319"/><linearGradient id="p" gradientTransform="matrix(1 0 0 -1 0 207.9556)" gradientUnits="userSpaceOnUse" x1="-9.2078" x2="244.9872" xlink:href="#a" y1="130.1784" y2="-4.6291"/><linearGradient id="q" gradientTransform="matrix(1 0 0 -1 0 207.9556)" gradientUnits="userSpaceOnUse" x1="-3.6881" x2="250.5461" xlink:href="#a" y1="140.6442" y2="5.8159"/><linearGradient id="r" gradientTransform="matrix(1 0 0 -1 0 207.9556)" gradientUnits="userSpaceOnUse" x1="1.4154" x2="255.6106" xlink:href="#a" y1="150.2084" y2="15.4008"/><linearGradient id="s" gradientTransform="matrix(1 0 0 -1 0 207.9556)" gradientUnits="userSpaceOnUse" x1="4.3579" x2="258.5797" xlink:href="#a" y1="155.8021" y2="20.9803"/><linearGradient id="t" gradientTransform="matrix(1 0 0 -1 0 207.9556)" gradientUnits="userSpaceOnUse" x1="43.2683" x2="297.4642" xlink:href="#a" y1="229.1271" y2="94.319"/><linearGradient id="u" gradientTransform="matrix(1 0 0 -1 0 207.9556)" gradientUnits="userSpaceOnUse" x1="36.708" x2="290.9249" xlink:href="#a" y1="216.7849" y2="81.9658"/><linearGradient id="v" gradientTransform="matrix(1 0 0 -1 0 207.9556)" gradientUnits="userSpaceOnUse" x1="36.7211" x2="290.9131" y1="216.7779" y2="81.972"><stop offset="0" stop-color="#513001"/><stop offset=".2958" stop-color="#fffcdf"/><stop offset=".4159" stop-color="#dac091"/><stop offset=".4589" stop-color="#d8be8f"/><stop offset=".4801" stop-color="#d2b787"/><stop offset=".4965" stop-color="#c8ab79"/><stop offset=".5104" stop-color="#bb9a67"/><stop offset=".5228" stop-color="#a98551"/><stop offset=".5341" stop-color="#926d39"/><stop offset=".5446" stop-color="#785320"/><stop offset=".5541" stop-color="#5a3807"/><stop offset=".5566" stop-color="#513001"/><stop offset=".7644" stop-color="#ab9969"/><stop offset=".8971" stop-color="#dac091"/><stop offset="1" stop-color="#fffcdf"/></linearGradient><circle cx="120.8" cy="17.8" fill="url(#b)" r="2.4"/><circle cx="117.5" cy="27.3" fill="url(#c)" r="2.4"/><circle cx="128.8" cy="25.8" fill="url(#d)" r="2.4"/><circle cx="220.8" cy="19" fill="url(#e)" r="2.4"/><circle cx="224.2" cy="28.6" fill="url(#f)" r="2.4"/><circle cx="212.8" cy="27" fill="url(#g)" r="2.4"/><path d="m21.2 121.7h-12.1l-2.1 4.9c-.5 1.2-.8 2.1-.8 2.7 0 .2 0 .5.1.7s.3.4.5.6c.3.2.6.3 1.1.4s1.1.2 1.9.3v.8h-9.8v-.8c1.3-.2 2.1-.5 2.5-.9s.8-.9 1.2-1.7c.4-.7.9-1.7 1.4-2.8l11-25.6h.8l10.8 25.9c.4 1.1.9 1.9 1.2 2.6.4.7.8 1.2 1.2 1.5.4.4.8.6 1.3.7s1 .2 1.7.3v.8h-12.3v-.8c.6 0 1.1-.1 1.5-.2s.7-.2 1-.4c.2-.2.4-.4.5-.6s.1-.5.1-.7c0-.3-.1-.8-.2-1.3-.2-.5-.4-1.2-.7-1.9zm-.7-1.7-5.3-12.6-5.4 12.6z" fill="url(#h)"/><path d="m67.4 132.1v-.8h1.2c1.3 0 2.2-.4 2.8-1.3.3-.5.5-1.6.5-3.4v-20.1c0-2-.2-3.2-.6-3.7-.6-.7-1.5-1-2.7-1h-1.2v-.9h12.7c4.7 0 8.2.5 10.6 1.6s4.4 2.8 5.9 5.3 2.2 5.3 2.2 8.5c0 2.3-.4 4.4-1.1 6.3s-1.8 3.6-3.3 5-3.3 2.5-5.5 3.3-4.7 1.2-7.6 1.2zm8.9-2.3c1.9.4 3.5.6 4.9.6 1.8 0 3.4-.3 4.9-1s2.8-1.6 3.9-2.8 2-2.7 2.6-4.4.9-3.6.9-5.8c0-2.1-.3-4.1-.9-5.8s-1.5-3.2-2.6-4.4-2.4-2.1-4-2.8c-1.5-.6-3.2-1-5-1-.7 0-1.4.1-2.2.2s-1.6.3-2.5.5z" fill="url(#i)"/><path d="m150.7 100.2c4 0 7.5 1.5 10.5 4.6s4.5 6.9 4.5 11.5c0 4.7-1.5 8.7-4.5 11.8s-6.6 4.7-10.8 4.7c-4.3 0-7.9-1.5-10.8-4.6-2.9-3-4.4-7-4.4-11.8 0-4.9 1.7-9 5.1-12.1 2.8-2.7 6.3-4.1 10.4-4.1zm-.4 1.7c-1.6 0-3 .3-4.2 1s-2.3 1.6-3.1 2.9c-.8 1.2-1.5 2.8-1.9 4.5-.4 1.8-.7 3.8-.7 6s.2 4.2.6 6 1.1 3.4 1.9 4.7 1.9 2.3 3.1 3.1c1.2.7 2.6 1.1 4.3 1.1 1.4 0 2.8-.3 4-.8 1.2-.6 2.3-1.4 3.2-2.6s1.6-2.6 2.1-4.4.8-3.9.8-6.4c0-2.4-.2-4.5-.6-6.4s-1.1-3.4-1.9-4.7c-.9-1.3-1.9-2.3-3.2-3-1.3-.6-2.8-1-4.4-1z" fill="url(#j)"/><path d="m199.8 100.9h8.5l19 23.4v-18c0-1.9-.2-3.1-.6-3.6-.6-.6-1.5-1-2.7-1h-1.1v-.9h10.8v.9h-1.1c-1.3 0-2.3.4-2.8 1.2-.3.5-.5 1.6-.5 3.4v26.3h-.8l-20.5-25.1v19.2c0 1.9.2 3.1.6 3.6.6.6 1.5 1 2.7 1h1.1v.8h-10.8v-.8h1.1c1.3 0 2.3-.4 2.8-1.2.3-.5.5-1.6.5-3.4v-21.7c-.5-.5-.8-1-1.1-1.3s-.6-.6-.9-.8-.6-.4-.9-.5-.7-.3-1.2-.4c-.4-.1-1.1-.2-2-.2v-.9z" fill="url(#k)"/><path d="m281.8 131.2v.8h-13.3v-.8h1.1c1.3 0 2.2-.4 2.8-1.1.4-.5.6-1.7.6-3.5v-20.1c0-.7 0-1.3 0-1.8s-.1-.8-.2-1.1-.2-.5-.4-.7-.4-.3-.7-.5c-.7-.4-1.4-.6-2.1-.6h-1.1v-.9h13.3v.9h-1.1c-1.3 0-2.2.4-2.8 1.1-.4.5-.6 1.7-.6 3.5v20.1 1.8c0 .5.1.8.2 1.1s.2.5.4.7.4.3.7.5c.7.4 1.4.6 2.1.6z" fill="url(#l)"/><path d="m337.5 100.2v10.8h-.8c-.3-2.1-.8-3.7-1.5-4.9-.4-.6-.8-1.2-1.3-1.7s-1.1-.9-1.7-1.3c-.6-.3-1.3-.6-2-.8s-1.4-.3-2.1-.3c-.8 0-1.5.1-2.2.4s-1.3.6-1.8 1.1c-.5.4-.9 1-1.2 1.5-.3.6-.4 1.2-.4 1.8 0 .9.2 1.6.6 2.2s.9 1.2 1.6 1.8c.7.5 1.5 1.1 2.5 1.6.9.5 2 1 3.1 1.6 1.2.7 2.4 1.3 3.5 1.9s2.1 1.3 3 2.1c.8.8 1.5 1.6 2 2.6s.8 2.1.8 3.5c0 1.2-.2 2.3-.7 3.3s-1.2 2-2 2.8c-.9.8-1.9 1.4-3.1 1.9s-2.5.7-4 .7c-.5 0-1 0-1.4 0s-.8 0-1.1-.1c-.4-.1-.7-.1-1.1-.3-.4-.1-.8-.3-1.3-.5-.4-.1-.7-.3-1.1-.4s-.7-.2-1.1-.3c-.3-.1-.6-.1-.8-.2-.2 0-.4-.1-.4-.1-.4 0-.7.1-.9.3s-.4.7-.5 1.4h-.8v-10.7h.8c.2 1.1.4 2.1.7 2.9s.6 1.5.9 2.1.8 1.1 1.3 1.5c.5.5 1.1.9 1.8 1.2s1.4.6 2.2.8 1.6.3 2.4.3c1 0 1.8-.1 2.6-.4s1.4-.6 2-1.1c.5-.5.9-1 1.2-1.6s.4-1.3.4-1.9c0-1-.2-1.8-.6-2.5s-1-1.3-1.7-1.8-1.5-1-2.4-1.5-1.9-1-2.9-1.7c-1.2-.7-2.3-1.3-3.4-2-1.1-.6-2-1.3-2.9-2-.8-.7-1.5-1.6-2-2.5s-.7-2.1-.7-3.4c0-1.1.2-2.2.7-3.1.5-1 1.1-1.9 1.9-2.6.8-.8 1.8-1.3 2.9-1.8 1.1-.4 2.3-.7 3.6-.7 1.6 0 3.4.4 5.3 1.2.8.4 1.4.6 1.8.6s.7-.1 1-.4c.3-.2.5-.7.6-1.4z" fill="url(#m)"/><path clip-rule="evenodd" d="m131.3 160.9-131.3 1.3v.2l131.3 1.3z" fill="url(#n)" fill-rule="evenodd"/><path clip-rule="evenodd" d="m215.1 161.1v2.4l123.2-1.1v-.2z" fill="url(#o)" fill-rule="evenodd"/><path d="m163.1 156.2-1.3 3.2c-.1.1 0 .3 0 .4.7 1.1 3.8 6.3.7 9.4-3.3 3.4-8.7 3.2-9.1 3.2s-7.8.3-7.3-5.3c.5-4.4 1.7-6.6 2.2-7.4.1-.2.1-.5-.1-.6-.2-.2-.6-.1-.7.1-.9 1.8-3.8 7.9-2.9 11.2 1 3.8 3.8 4.6 4.1 4.7.4.2 6.3 2.3 13.7-1.5h.1c.3-.2 2.9-2.3 2.8-5.8s0-6.5 0-6.8c0 0 0 0 0-.1 0-.3-.3-3.2-1.5-5-.1-.1-.6-.1-.7.3" fill="url(#p)"/><path d="m154.9 149.6 2.3 1.2c.3.1.4.5.2.7l-.9 1.9c-.1.3-.5.4-.8.3l-2.3-1.2c-.3-.1-.4-.5-.2-.8l1-1.9c.1-.2.5-.3.7-.2" fill="url(#q)"/><path d="m167.9 161.7c.2 0 .3.1.4.2.2.4.7 1.4 1.6 1.3h8c.2 0 .4-.2.4-.4 0-1.7-.3-8.2-5-9.2-.2 0-.3-.2-.3-.4l.4-3.1c0-.3.4-.4.6-.3 1.5 1.1 5.6 4.8 5.7 13 0 .2.2.4.4.4h8c.2 0 .4-.2.4-.4 0-1-.1-4-2.3-5.7-.1-.1-.2-.3-.1-.5l1.2-2.7c.1-.2.4-.3.6-.1.8.9 2.4 3.4 2 8.9 0 .2.2.4.4.4h5.9c.2 0 .4-.2.4-.4l-2.4-16.8c0-.1-.1-.2-.2-.3l-.8-.3c-.2-.1-.2-.2-.2-.4.1-1 .6-4.2 1-4.7.4-.6.6.7.6.9v.1c.1.2.3.8 1.2 1.1.7.2 1.4.5 1.8.7.2.1.2.2.2.4l-.5 3.2c0 .2-.3.4-.5.3-.3-.1-.6.1-.5.4l2.4 15.1v.1 4c0 .2-.2.4-.4.4h-28.4-.1c-.4-.1-2.5-.8-2.5-2.1.1-1.1.2-2.2.3-2.7-.1-.2.1-.4.3-.4" fill="url(#r)"/><path d="m184.5 146.7-.9 1.7c-.2.3 0 .7.3.9l2.1 1.1c.3.2.8.1.9-.3l.9-1.8c.2-.3 0-.8-.3-.9l-2.1-1.1c-.3 0-.7.1-.9.4" fill="url(#s)"/><path d="m259.1 19.5c0-2.8-1.6-2.8-1.6-2.8s-5.1-.2-8.3 2.5-.6 6.1-.6 6.1 1.3 2.2 1.4 7.3-3.8 10.5-3.8 10.5-.7 2-7.4 7.2c-6.7 5.3-11.2 4.9-11.2 4.9s-1.3.2-3.7-1.5-4.3-9.1-4.3-9.1c-1.2-3.6-1.4-12-1.4-12s-.3-3.5-.7-1.1-5.5 8.8-5.5 8.8-.8 1.3-5.7 4.6c-4.9 3.4-12.7 2.4-12.7 2.4-.3-.1-.5-.2-.6-.3.8-1.4 1.8-2.9 2.7-3.5 1.8-1.2 5.3-2.8 5.3-2.8s-5.7-.9-10.7-10.2c0 0-1.2 3.5-4.2 5.7 0 0-2.8 1.7-4.4 1.6s-1.7 1.8-1.7 1.8.1 1.4 2.9 1.2 3.2 2.7 3.2 2.7.3 1.4-.4 2.1h-.1c-.3.2-.7.4-1 .4 0 0 0 0-.1 0-2.5.6-4.9-2.1-4.9-2.1-2-1.6-2.1-6.8-2.2-8.8-.1-1.9 1.7-7.2 1.7-7.2s2.5-5.7 4.2-6.9c1.8-1.2.2-2.4.2-2.4-10.9-11-11.8-16.7-12.5-18-.6-1.3-1.2 0-1.2 0-2.2 8.1-13.2 18.5-13.2 18.5s-.7 1.1.7 1.9 4 6.1 4 6.1.8 1.7 1.8 8-2.1 8.9-2.1 8.9-2.4 2-4.5 2-1.6-2.6-1.6-2.6.4-2.8 3.2-2.7c2.8.2 2.9-1.2 2.9-1.2s-.1-1.9-1.7-1.8-4.4-1.6-4.4-1.6c-3.1-2.1-4.2-5.7-4.2-5.7-5 9.2-10.7 10.2-10.7 10.2s3.5 1.6 5.3 2.8c.9.6 1.9 2.2 2.8 3.6s-7.5 1.4-12.4-2-5.7-4.6-5.7-4.6-5.1-6.4-5.5-8.8-.7 1.1-.7 1.1-.2 8.3-1.4 12c0 0-1.9 7.3-4.3 9.1-2.4 1.7-3.7 1.5-3.7 1.5s-4.5.4-11.2-4.9-7.4-7.2-7.4-7.2-3.9-5.4-3.8-10.5 1.4-7.3 1.4-7.3 2.6-3.4-.6-6.1-8.3-2.5-8.3-2.5-1.6 0-1.6 2.8c0 0-.5 6.3 2 11s7.1 11.6 7.1 11.6l12.2 18.5s.6 2.8 4.9.6 26.3-4.5 26.3-4.5 4.4-.3 9.3-.6c-2.2 2.1-3.4 3.6-3.5 3.7l-.2.3c-4.2.3-8.6.7-12.9 1.3-14.6 2-21.5 4.3-21.5 4.3s-2.1 1.5-1.1 2.4c1.1.9 2.1 1 2.1 1s3-.5 6-1.5c3.1-.9 12.3-2.2 12.3-2.2s3-.3 6.6-.7l9.4-.3c1 1.1 2 2.2 3.1 3.2-22.6 1.7-37.5 4.8-37.5 4.8 5.9 10.6 0 16.3 0 16.3 56.1-14 126 0 126 0-9.5-7.4 0-16.3 0-16.3-12.6-2.6-25.1-4.2-37.2-5 1.7-1.6 2.6-2.6 2.7-2.7l.4-.5c1.8.1 3.7.3 5.5.4 6.4.6 10.9 1.2 10.9 1.2s8.1.9 18.2 3.3c0 0 1.9.4 2.1-1.1v-.7s-.2-1.3-1.1-1.6-2.3-.7-2.3-.7-3.1-1.2-8-1.8c0 0-17.1-2.4-22.7-2.7-1 0-2-.1-3.1-.2-1.3-1.5-2.7-3.1-4.3-4.7 5.8.3 11.6.7 11.6.7s22 2.3 26.3 4.5 4.9-.6 4.9-.6l12.5-18.3s4.7-6.9 7.1-11.6c2.6-4.6 2.1-10.9 2.1-10.9zm-124.8 34.4c-1 .2-9.9.9-9.9.9s-1.5.3-.7-1.5 3.4-11.4 3.4-11.4l7.7 11.2s.5.6-.5.8zm60.7 6.5c.7.7 1.3 1.5 2 2.3v.1s-.4.5-1.2 1.3c-.2.2-.3.3-.5.5l-.1.1c-.7.7-1.6 1.5-2.7 2.5 0 0 0 0-.1 0-2.2 1.9-5.2 4.3-8.9 6.6-7.7 4.8-19.8 6.7-34.1-6.4-.1-.1-.2-.2-.2-.2-.4-.3-.7-.7-1.1-1-.2-.2-.3-.3-.5-.5-.4-.4-.7-.7-1.1-1.1-.1-.1-.2-.2-.3-.3-.7-.8-1.5-1.6-2.2-2.4v-.2s.6-.7 1.7-1.9.1-.1.1-.1c.2-.2.4-.4.6-.6.1-.1.1-.1.2-.2.6-.6 1.2-1.2 2-1.9 0 0 .1-.1.2-.1.3-.3.7-.6 1-.9l.1-.1c2.1-1.8 4.6-3.8 7.7-5.7 7.4-4.7 19.5-6.1 32.7 5.4.1.1.3.2.4.3.2.2.5.4.7.7.2.2.4.4.6.6.4.4.8.8 1.3 1.2.2.2.5.5.7.7s.4.5.7.7c0 .3.1.4.3.6zm22.9-5.1s-8.9-.7-9.9-.9-.5-.8-.5-.8l7.7-11.2s2.6 9.6 3.4 11.4c.7 1.9-.7 1.5-.7 1.5z" fill="url(#t)"/><path d="m159.5 52.3c-7.4 4.4-12.1 9.4-12.1 9.4v.1c15.3 16.1 26.7 14.8 34 10.2s12.3-9.5 12.3-9.5v-.1c-14.6-15.8-26.1-14.8-34.2-10.1zm11.1 20.2c-6.1 0-11-4.6-11-10.3s4.9-10.3 11-10.3 11 4.6 11 10.3-4.9 10.3-11 10.3z" fill="#2b2b75"/><ellipse cx="170.6" cy="62.2" fill="#2cb8eb" rx="7.4" ry="6.9"/><ellipse cx="170.6" cy="62.2" fill="url(#u)" rx="3.1" ry="2.9"/><path d="m170.6 69.9c-4.5 0-8.2-3.5-8.2-7.7 0-4.3 3.7-7.7 8.2-7.7s8.2 3.5 8.2 7.7-3.7 7.7-8.2 7.7zm0-13.9c-3.6 0-6.6 2.7-6.6 6.1s3 6.1 6.6 6.1 6.6-2.7 6.6-6.1c0-3.3-3-6.1-6.6-6.1z" fill="url(#v)"/></svg>